<?xml version="1.0" encoding="utf-8"?>
<svg viewBox="-154.301 -70.126 1238.263 614.003" xmlns="http://www.w3.org/2000/svg" xmlns:bx="https://boxy-svg.com">
  <path d="M 124.222 316.451 Q 135.333 310.036 146.444 316.451 L 225.228 361.937 Q 236.338 368.352 236.338 381.181 L 236.338 472.153 Q 236.338 484.982 225.228 491.397 L 146.444 536.883 Q 135.333 543.298 124.222 536.883 L 45.438 491.397 Q 34.328 484.983 34.328 472.153 L 34.328 381.181 Q 34.328 368.352 45.438 361.937 Z" style="fill: rgb(207, 226, 243);" transform="matrix(0.998333, -0.057711, 0.057711, 0.998333, -285.686074, -64.907114)" bx:shape="n-gon 135.333 426.667 116.631 116.631 6 0.11 1@1ca29321"/>
  <path d="M 306.519 414.218 Q 319.333 406.82 332.147 414.218 L 423.011 466.678 Q 435.825 474.076 435.825 488.873 L 435.825 593.793 Q 435.825 608.589 423.011 615.988 L 332.147 668.448 Q 319.333 675.846 306.519 668.448 L 215.655 615.988 Q 202.841 608.59 202.841 593.793 L 202.841 488.873 Q 202.841 474.076 215.655 466.678 Z" style="fill: rgb(244, 204, 204);" transform="matrix(-0.990153, -0.139986, 0.139986, -0.990153, 290.900674, 1032.965119)" bx:shape="n-gon 319.333 541.333 134.513 134.513 6 0.11 1@1fd12842"/>
  <path d="M 248.814 309.111 Q 252.667 306.886 256.52 309.111 L 283.842 324.885 Q 287.695 327.11 287.695 331.559 L 287.695 363.107 Q 287.695 367.557 283.842 369.781 L 256.52 385.555 Q 252.667 387.78 248.814 385.555 L 221.492 369.781 Q 217.639 367.557 217.639 363.107 L 217.639 331.559 Q 217.639 327.11 221.492 324.885 Z" style="fill: rgb(255, 242, 204);" transform="matrix(0.905562, -0.424214, 0.424214, 0.905562, -402.242077, 75.188456)" bx:shape="n-gon 252.667 347.333 40.447 40.447 6 0.11 1@54d38ea4"/>
  <path d="M 695.352 421.786 Q 698.667 419.872 701.982 421.786 L 725.486 435.356 Q 728.8 437.27 728.8 441.097 L 728.8 468.237 Q 728.8 472.064 725.486 473.978 L 701.982 487.548 Q 698.667 489.462 695.352 487.548 L 671.848 473.978 Q 668.534 472.065 668.534 468.237 L 668.534 441.097 Q 668.534 437.27 671.848 435.356 Z" style="fill: rgb(89, 89, 89);" transform="matrix(0.690428, -0.723401, 0.723401, 0.690428, -249.340248, 675.652608)" bx:shape="n-gon 698.667 454.667 34.795 34.795 6 0.11 1@470bfb4c"/>
  <path d="M 1047.278 431.565 Q 1064 421.917 1080.722 431.565 L 1199.296 499.977 Q 1216.018 509.625 1216.018 528.921 L 1216.018 665.745 Q 1216.018 685.041 1199.296 694.689 L 1080.722 763.101 Q 1064 772.749 1047.278 763.101 L 928.704 694.689 Q 911.982 685.041 911.982 665.745 L 911.982 528.921 Q 911.982 509.625 928.704 499.977 Z" style="fill: rgb(244, 204, 204);" transform="matrix(-0.779406, -0.626519, 0.626519, -0.779406, 1408.206585, 1564.071458)" bx:shape="n-gon 1064 597.333 175.535 175.416 6 0.11 1@08d96c50"/>
  <path d="M 899.921 332.571 Q 908.667 327.521 917.413 332.571 L 979.432 368.377 Q 988.179 373.427 988.179 383.526 L 988.179 455.14 Q 988.179 465.239 979.432 470.289 L 917.413 506.095 Q 908.667 511.145 899.921 506.095 L 837.902 470.289 Q 829.155 465.239 829.155 455.14 L 829.155 383.526 Q 829.155 373.427 837.902 368.377 Z" style="fill: rgb(255, 242, 204);" transform="matrix(0.998145, 0.060887, -0.060887, 0.998145, -136.288304, -43.963983)" bx:shape="n-gon 908.667 419.333 91.812 91.812 6 0.11 1@5b438c8b"/>
  <path d="M 484.177 503.916 Q 486 502.863 487.823 503.916 L 500.75 511.379 Q 502.573 512.432 502.573 514.537 L 502.573 529.463 Q 502.573 531.569 500.75 532.621 L 487.823 540.084 Q 486 541.137 484.177 540.084 L 471.25 532.621 Q 469.427 531.569 469.427 529.463 L 469.427 514.537 Q 469.427 512.432 471.25 511.379 Z" style="fill: rgb(255, 242, 204);" transform="matrix(0.971212, 0.238215, -0.238215, 0.971212, 732.124411, -368.239269)" bx:shape="n-gon 486 522 19.137 19.137 6 0.11 1@5639833b"/>
  <path d="M 811.991 67.613 Q 828 58.628 844.009 67.613 L 957.526 131.329 Q 973.535 140.314 973.535 158.285 L 973.535 285.715 Q 973.535 303.686 957.526 312.671 L 844.009 376.387 Q 828 385.372 811.991 376.387 L 698.474 312.671 Q 682.465 303.686 682.465 285.715 L 682.465 158.285 Q 682.465 140.314 698.474 131.329 Z" style="fill: rgb(207, 226, 243);" transform="matrix(0.920483, -0.390783, 0.390783, 0.920483, 143.032185, 194.924704)" bx:shape="n-gon 828 222 168.049 163.372 6 0.11 1@ea2023a4"/>
  <path d="M 691.279 377.758 Q 698.667 373.282 706.055 377.758 L 758.441 409.498 Q 765.829 413.975 765.829 422.927 L 765.829 486.407 Q 765.829 495.359 758.441 499.836 L 706.055 531.576 Q 698.667 536.052 691.279 531.576 L 638.893 499.836 Q 631.505 495.36 631.505 486.407 L 631.505 422.927 Q 631.505 413.975 638.893 409.498 Z" style="fill: rgb(89, 89, 89);" transform="matrix(0.690428, -0.723401, 0.723401, 0.690428, -633.014545, 628.912006)" bx:shape="n-gon 698.667 454.667 77.552 81.385 6 0.11 1@cb807d74"/>
  <path d="M 934.884 169.358 Q 941.333 165.635 947.782 169.358 L 993.512 195.761 Q 999.961 199.484 999.961 206.931 L 999.961 259.735 Q 999.961 267.182 993.512 270.905 L 947.782 297.308 Q 941.333 301.031 934.884 297.308 L 889.154 270.905 Q 882.705 267.182 882.705 259.735 L 882.705 206.931 Q 882.705 199.484 889.154 195.761 Z" style="fill: rgb(89, 89, 89);" transform="matrix(0.943116, -0.332463, 0.332463, 0.943116, -168.52799, 221.090598)" bx:shape="n-gon 941.333 233.333 67.698 67.698 6 0.11 1@df4faa57"/>
  <path d="M 58.681 100.114 Q 66.667 95.503 74.653 100.114 L 131.28 132.807 Q 139.266 137.418 139.266 146.639 L 139.266 212.027 Q 139.266 221.248 131.28 225.859 L 74.653 258.552 Q 66.667 263.163 58.681 258.552 L 2.054 225.859 Q -5.932 221.248 -5.932 212.027 L -5.932 146.639 Q -5.932 137.418 2.054 132.807 Z" style="fill: rgb(244, 204, 204);" transform="matrix(0.989602, 0.14383, -0.14383, 0.989602, -166.22527, -82.266184)" bx:shape="n-gon 66.667 179.333 83.83 83.83 6 0.11 1@e66b212b"/>
  <path d="M 697.108 439.036 Q 698.667 438.126 700.226 439.036 L 711.284 445.487 Q 712.844 446.396 712.844 448.216 L 712.844 461.118 Q 712.844 462.937 711.284 463.847 L 700.226 470.298 Q 698.667 471.208 697.108 470.298 L 686.05 463.847 Q 684.49 462.938 684.49 461.118 L 684.49 448.216 Q 684.49 446.396 686.05 445.487 Z" style="fill: rgb(89, 89, 89);" transform="matrix(0.690428, -0.723401, 0.723401, 0.690428, -877.313564, 358.069499)" bx:shape="n-gon 698.667 454.667 16.37 16.541 6 0.11 1@84233c58"/>
</svg>