<?xml version="1.0" encoding="UTF-8" standalone="no"?>
<svg
   xmlns:dc="http://purl.org/dc/elements/1.1/"
   xmlns:cc="http://creativecommons.org/ns#"
   xmlns:rdf="http://www.w3.org/1999/02/22-rdf-syntax-ns#"
   xmlns:svg="http://www.w3.org/2000/svg"
   xmlns="http://www.w3.org/2000/svg"
   xmlns:sodipodi="http://sodipodi.sourceforge.net/DTD/sodipodi-0.dtd"
   xmlns:inkscape="http://www.inkscape.org/namespaces/inkscape"
   version="1.1"
   id="svg2"
   xml:space="preserve"
   width="1600"
   height="1600"
   viewBox="0 0 1600 1600"
   sodipodi:docname="illust58-7381-01.eps"><metadata
     id="metadata8"><rdf:RDF><cc:Work
         rdf:about=""><dc:format>image/svg+xml</dc:format><dc:type
           rdf:resource="http://purl.org/dc/dcmitype/StillImage" /></cc:Work></rdf:RDF></metadata><defs
     id="defs6" /><sodipodi:namedview
     pagecolor="#ffffff"
     bordercolor="#666666"
     borderopacity="1"
     objecttolerance="10"
     gridtolerance="10"
     guidetolerance="10"
     inkscape:pageopacity="0"
     inkscape:pageshadow="2"
     inkscape:window-width="640"
     inkscape:window-height="480"
     id="namedview4" /><g
     id="g10"
     inkscape:groupmode="layer"
     inkscape:label="ink_ext_XXXXXX"
     transform="matrix(1.3333333,0,0,-1.3333333,0,1600)"><g
       id="g12"
       transform="scale(0.1)"><path
         d="m 4333.94,9528.66 c 0,256.92 149.12,465.93 332.35,465.93 H 7325.1 c 183.23,0 332.34,-209.01 332.34,-465.93 V 9315.57 H 4333.94 Z M 10197.6,8340.06 V 8841 h -573.82 c -29.56,266.41 -235.09,474.57 -482.63,474.57 H 8132.23 v 213.09 c 0,623.94 -362.07,1131.54 -807.13,1131.54 H 4666.29 c -445.06,0 -807.13,-507.6 -807.13,-1131.54 v -213.09 h -961.44 c -247.54,0 -453.07,-208.16 -482.63,-474.57 h -431.34 v -500.94 h 8213.85"
         style="fill:#3b393d;fill-opacity:1;fill-rule:nonzero;stroke:none"
         id="path14" /><path
         d="m 8127.64,2551.86 c 0,-267.71 -192.83,-486.74 -428.52,-486.74 h -35.71 c -235.69,0 -428.52,219.03 -428.52,486.74 v 4299.57 c 0,267.71 192.83,486.75 428.52,486.75 h 35.71 c 235.69,0 428.52,-219.04 428.52,-486.75 z m -1606.96,0 c 0,-267.71 -192.83,-486.74 -428.52,-486.74 h -35.71 c -235.69,0 -428.53,219.03 -428.53,486.74 v 4299.57 c 0,267.71 192.84,486.75 428.53,486.75 h 35.71 c 235.69,0 428.52,-219.04 428.52,-486.75 z m -1571.25,0 c 0,-267.71 -192.84,-486.74 -428.52,-486.74 h -35.71 c -235.69,0 -428.53,219.03 -428.53,486.74 v 4299.57 c 0,267.71 192.84,486.75 428.53,486.75 h 35.71 c 235.68,0 428.52,-219.04 428.52,-486.75 z M 1983.75,8023.67 v -290.01 h 22.81 v -237.29 h 392.38 L 3379.9,1221.4 h 5346.22 l 1030,6274.97 h 441.48 v 237.29 290.01 H 1983.75"
         style="fill:#3b393d;fill-opacity:1;fill-rule:nonzero;stroke:none"
         id="path16" /></g></g></svg>
